<svg id="visual" viewBox="0 0 1920 1080" width="1920" height="1080" xmlns="http://www.w3.org/2000/svg" xmlns:xlink="http://www.w3.org/1999/xlink" version="1.1"><rect x="0" y="0" width="1920" height="1080" fill="#FFEAEA"></rect><defs><linearGradient id="grad1_0" x1="43.8%" y1="0%" x2="100%" y2="100%"><stop offset="14.444444444444446%" stop-color="#ffeaea" stop-opacity="1"></stop><stop offset="85.55555555555554%" stop-color="#ffeaea" stop-opacity="1"></stop></linearGradient></defs><defs><linearGradient id="grad2_0" x1="0%" y1="0%" x2="56.3%" y2="100%"><stop offset="14.444444444444446%" stop-color="#ffeaea" stop-opacity="1"></stop><stop offset="85.55555555555554%" stop-color="#ffeaea" stop-opacity="1"></stop></linearGradient></defs><g transform="translate(1920, 0)"><path d="M0 918C-83.9 917.9 -167.8 917.9 -237.6 886.7C-307.4 855.6 -363 793.3 -433.5 750.8C-504 708.4 -589.3 685.8 -623.7 623.7C-658 561.6 -641.5 460.1 -679 392C-716.4 323.9 -807.9 289.3 -856.8 229.6C-905.6 169.8 -911.8 84.9 -918 0L0 0Z" fill="#F5CBCB"></path></g><g transform="translate(0, 1080)"><path d="M0 -918C83 -917.7 166 -917.3 237.6 -886.7C309.2 -856.1 369.4 -795.2 432 -748.2C494.6 -701.3 559.7 -668.3 618.7 -618.7C677.7 -569.2 730.6 -503.1 743.9 -429.5C757.2 -355.9 731 -274.7 753.4 -201.9C775.8 -129 846.9 -64.5 918 0L0 0Z" fill="#F5CBCB"></path></g></svg>